# xmcd
# 
# Track frame offsets:
#     150
#     29243
#     96095
#     132078
#     164784
#     208367
# 
# Disc length: 3341
# 
# Revision: 3
# Processed by: cddbd v1.5.2PL0 Copyright (c) Steve Scherf et al.
# Submitted via: fre:ac v1.0.31
# 
DISCID=5c0d0b06
DTITLE=Nik Bärtsch's Ronin - Holon
DYEAR=2008
DGENRE=Jazz, Zen Funk
TTITLE0=Modul 42
TTITLE1=Modul 41_17
TTITLE2=Modul 39_8
TTITLE3=Modul 46
TTITLE4=Modul 45
TTITLE5=Modul 44
EXTD=CD 2008\nECM 2049 [174 8672]
EXTT0=
EXTT1=
EXTT2=
EXTT3=
EXTT4=
EXTT5=
PLAYORDER=
